<svg width="34" height="34" viewBox="0 0 34 34" xmlns="http://www.w3.org/2000/svg">
    <g fill="none" fill-rule="evenodd">
        <rect fill-opacity=".14" fill="#FFF" width="34" height="34" rx="14"/>
        <path d="M6 6h22v22H6z"/>
        <path d="M17 7.833c-5.05 0-9.167 4.116-9.167 9.167 0 5.05 4.116 9.167 9.167 9.167a2.293 2.293 0 0 0 2.292-2.292c0-.56-.211-1.1-.587-1.53a.484.484 0 0 1-.12-.303c0-.257.203-.459.46-.459h1.622c3.034 0 5.5-2.465 5.5-5.5 0-4.546-4.116-8.25-9.167-8.25zm5.042 10.084c-.761 0-1.375-.614-1.375-1.375s.614-1.375 1.375-1.375c.76 0 1.375.614 1.375 1.375 0 .76-.615 1.375-1.375 1.375zm-2.75-3.667c-.761 0-1.375-.614-1.375-1.375 0-.76.614-1.375 1.375-1.375.76 0 1.375.614 1.375 1.375 0 .76-.614 1.375-1.375 1.375zm-8.709 2.292c0-.761.614-1.375 1.375-1.375s1.375.614 1.375 1.375c0 .76-.614 1.375-1.375 1.375-.76 0-1.375-.614-1.375-1.375zm5.5-3.667c0 .76-.614 1.375-1.375 1.375-.76 0-1.375-.614-1.375-1.375 0-.76.614-1.375 1.375-1.375s1.375.614 1.375 1.375z" fill="#FFF" fill-rule="nonzero"/>
    </g>
</svg>
