<svg width="34" height="34" viewBox="0 0 34 34" xmlns="http://www.w3.org/2000/svg">
    <g fill="none" fill-rule="evenodd">
        <rect fill-opacity=".14" fill="#FFF" width="34" height="34" rx="14"/>
        <path d="M5 5h24v24H5z"/>
        <path d="M20.188 9a2.99 2.99 0 0 1 2.12.879 2.99 2.99 0 0 1 .88 2.121v6a2.99 2.99 0 0 1-.88 2.121 2.99 2.99 0 0 1-2.12.879h-3.375a2.99 2.99 0 0 1-2.122-.879A2.99 2.99 0 0 1 13.812 18v-6c0-.828.336-1.578.88-2.121A2.99 2.99 0 0 1 16.811 9z" stroke="#FFF" stroke-width="2"/>
        <path d="M10 15v4a6 6 0 0 0 6 6h3" stroke="#FFF" stroke-width="1.846" stroke-linecap="round" stroke-linejoin="round"/>
    </g>
</svg>
