<svg width="23" height="23" viewBox="0 0 23 23" xmlns="http://www.w3.org/2000/svg">
    <g fill="none" fill-rule="evenodd">
        <rect width="23" height="23" rx="9" fill="#3EAB68"/>
        <path d="m8.677 13.874-.425 2.13a.964.964 0 0 0-.029.25c0 .38.25.608.645.608.417 0 .666-.213.754-.66l.469-2.328h2.124l-.432 2.13a.964.964 0 0 0-.03.25c0 .38.25.608.645.608.417 0 .666-.227.754-.674l.476-2.314h1.26c.476 0 .784-.315.784-.777 0-.366-.242-.615-.63-.615h-1.143l.455-2.227h1.215c.476 0 .784-.307.784-.769 0-.366-.242-.608-.63-.608h-1.091l.41-2.021a.964.964 0 0 0 .03-.25c0-.38-.25-.607-.645-.607-.418 0-.667.227-.755.674l-.454 2.204h-2.11l.404-2.021c.014-.073.029-.176.029-.25 0-.38-.249-.607-.645-.607-.417 0-.666.227-.754.667l-.461 2.211H8.458c-.477 0-.791.308-.791.77 0 .358.249.615.637.615H9.41l-.447 2.226H7.79c-.483 0-.791.308-.791.77 0 .358.249.615.637.615h1.04zm1.604-1.297.491-2.41h2.256l-.498 2.41H10.28z" fill="#FFF" fill-rule="nonzero"/>
    </g>
</svg>
