<svg width="25" height="22" viewBox="0 0 25 22" xmlns="http://www.w3.org/2000/svg">
    <g fill="none" fill-rule="evenodd">
        <rect fill="#268DFF" width="25" height="22" rx="9"/>
        <g fill="#FFF" fill-rule="nonzero">
            <path d="M8.173 15c.437 0 .719-.287.71-.742 0-.037 0-.065-.01-.092l-.154-1.66 1.41 1.038c.145.112.3.177.49.177.355 0 .691-.316.691-.751 0-.297-.164-.538-.473-.668l-1.582-.77 1.582-.76c.31-.139.473-.37.473-.667 0-.445-.327-.751-.69-.751a.778.778 0 0 0-.492.176L8.71 10.559l.154-1.725c.01-.027.01-.055.01-.083.008-.454-.264-.751-.7-.751-.446 0-.737.315-.728.751 0 .028 0 .056.009.083l.155 1.725-1.428-1.03a.735.735 0 0 0-.482-.175c-.364 0-.7.315-.7.75 0 .297.164.53.473.668l1.582.76-1.573.76c-.31.14-.482.372-.482.678 0 .435.336.741.7.741a.745.745 0 0 0 .482-.167l1.428-1.038-.155 1.66c-.01.027-.01.055-.01.092-.008.436.283.742.728.742zM16.863 15c.437 0 .718-.287.71-.742 0-.037 0-.065-.01-.092l-.154-1.66 1.409 1.038c.145.112.3.177.491.177.355 0 .691-.316.691-.751 0-.297-.164-.538-.473-.668l-1.582-.77 1.582-.76c.31-.139.473-.37.473-.667 0-.445-.327-.751-.691-.751a.778.778 0 0 0-.491.176L17.4 10.559l.154-1.725c.01-.027.01-.055.01-.083.008-.454-.264-.751-.7-.751-.446 0-.737.315-.728.751 0 .028 0 .056.009.083l.154 1.725-1.427-1.03a.735.735 0 0 0-.482-.175c-.364 0-.7.315-.7.75 0 .297.164.53.473.668l1.582.76-1.573.76c-.31.14-.482.372-.482.678 0 .435.336.741.7.741a.745.745 0 0 0 .482-.167l1.427-1.038-.154 1.66c-.01.027-.01.055-.01.092-.008.436.283.742.728.742z"/>
        </g>
    </g>
</svg>
